<svg width="47" height="43" viewBox="0 0 47 43" fill="none" xmlns="http://www.w3.org/2000/svg">
<path d="M41.1268 27.0654C41.0261 26.7343 41.2476 26.2746 41.4591 25.9436C41.5238 25.8451 41.5944 25.7499 41.6706 25.6585C43.4798 23.2043 44.4475 20.3138 44.4505 17.3555C44.4807 8.8778 36.6448 2 26.9558 2C18.5056 2 11.4554 7.2503 9.80359 14.2201C9.55649 15.2531 9.43156 16.3073 9.43094 17.3647C9.43094 25.8516 16.9646 32.9133 26.6537 32.9133C28.1946 32.9133 30.2694 32.4904 31.4075 32.2053C32.5456 31.9203 33.6737 31.5433 33.9658 31.4421C34.2652 31.3391 34.5825 31.2861 34.9024 31.2858C35.2515 31.2846 35.5974 31.3471 35.9197 31.4697L41.6304 33.3179C41.7555 33.3663 41.8879 33.3973 42.0232 33.4099C42.2369 33.4099 42.4418 33.3324 42.5929 33.1944C42.744 33.0565 42.8289 32.8694 42.8289 32.6743C42.8219 32.5901 42.805 32.5069 42.7785 32.426L41.1268 27.0654Z" stroke="white" stroke-width="4" stroke-miterlimit="10" stroke-linecap="round"/>
<path d="M4.41111 18.9187C3.09013 21.0852 2.45111 23.5431 2.56469 26.0205C2.67827 28.4979 3.54003 30.8984 5.0547 32.9566C5.28736 33.2775 5.41829 33.5257 5.378 33.6922C5.33771 33.8586 4.17644 39.3811 4.17644 39.3811C4.14851 39.5103 4.1591 39.644 4.20712 39.7682C4.25513 39.8924 4.3388 40.0026 4.44938 40.0872C4.59694 40.1946 4.78042 40.2523 4.96909 40.2509C5.06991 40.2511 5.16969 40.2324 5.26218 40.1957L10.9235 38.1728C11.3132 38.0326 11.7478 38.0392 12.1321 38.1912C14.0397 38.8698 16.1487 39.2946 18.2588 39.2946C21.0902 39.2974 23.872 38.6156 26.3212 37.3186" stroke="white" stroke-width="4" stroke-miterlimit="10" stroke-linecap="round"/>
</svg>
