<svg width="20" height="20" viewBox="0 0 20 20" fill="none" xmlns="http://www.w3.org/2000/svg">
    <path
        d="M10.0003 19.3334C4.84567 19.3334 0.666992 15.1547 0.666992 10.0001C0.666992 4.84542 4.84567 0.666748 10.0003 0.666748C15.155 0.666748 19.3337 4.84542 19.3337 10.0001C19.3278 15.1523 15.1525 19.3275 10.0003 19.3334ZM10.0003 3.33341C6.31843 3.33341 3.33366 6.31818 3.33366 10.0001C3.33366 13.682 6.31843 16.6667 10.0003 16.6667C13.6822 16.6667 16.667 13.682 16.667 10.0001C16.667 6.31818 13.6822 3.33341 10.0003 3.33341ZM10.0003 14.0001C7.79119 14.0001 6.00033 12.2092 6.00033 10.0001C6.00033 7.79094 7.79119 6.00008 10.0003 6.00008C12.2095 6.00008 14.0003 7.79094 14.0003 10.0001C14.0003 11.0609 13.5789 12.0784 12.8288 12.8285C12.0786 13.5787 11.0612 14.0001 10.0003 14.0001Z"
        fill="#000000" />
</svg>
