<svg width="28" height="28" viewBox="0 0 28 28" fill="none" xmlns="http://www.w3.org/2000/svg">
<path d="M4.88357 4.29306C4.04138 4.52275 3.24294 5.25009 2.97498 6.03212L2.88748 6.28369L1.67888 6.30009C0.514038 6.3165 0.459351 6.32197 0.289819 6.44228C-0.0765869 6.70478 -0.0765869 7.29541 0.289819 7.55791C0.459351 7.67822 0.514038 7.68369 1.67888 7.70009L2.88748 7.7165L2.97498 7.96806C3.09529 8.32353 3.34685 8.69541 3.68044 9.00712C4.56638 9.84931 5.76951 10.0243 6.88513 9.48291C7.43748 9.21494 8.10466 8.42744 8.25779 7.87509L8.2906 7.73837L17.9156 7.71103L27.5351 7.68369L27.7101 7.55791C28.0765 7.29541 28.0765 6.70478 27.7101 6.44228L27.5351 6.3165L17.9156 6.28916L8.2906 6.26181L8.25779 6.12509C8.10466 5.57275 7.43748 4.78525 6.88513 4.51728C6.25623 4.21103 5.50154 4.129 4.88357 4.29306ZM6.15232 5.71494C6.39841 5.81337 6.65544 6.054 6.82498 6.33837C6.95076 6.55166 6.97263 6.65009 6.97263 7.00009C6.97263 7.35009 6.95076 7.44853 6.82498 7.66181C6.64998 7.95712 6.39841 8.18681 6.12498 8.30166C5.87888 8.40556 5.33201 8.40556 5.08044 8.29619C4.57732 8.08837 4.21091 7.54697 4.21091 7.00009C4.21091 6.52431 4.42419 6.14697 4.88357 5.79697C5.15154 5.59462 5.76404 5.55634 6.15232 5.71494Z" fill="white"/>
<path d="M21.7437 11.2712C20.8906 11.4735 19.9554 12.3321 19.7476 13.1196L19.7094 13.2618L10.0844 13.2892L0.464819 13.3165L0.289819 13.4423C-0.0765869 13.7048 -0.0765869 14.2954 0.289819 14.5579L0.464819 14.6837L10.0844 14.711L19.7094 14.7384L19.7422 14.8751C19.8953 15.4274 20.5625 16.2149 21.1148 16.4829C21.9625 16.8931 22.8812 16.8931 23.6906 16.4829C24.232 16.2095 24.8336 15.5259 25.025 14.9681L25.1125 14.7165L26.3211 14.7001C27.4859 14.6837 27.5406 14.6782 27.7101 14.5579C28.0765 14.2954 28.0765 13.7048 27.7101 13.4423C27.5406 13.322 27.4859 13.3165 26.3211 13.3001L25.1125 13.2837L25.025 13.0321C24.7515 12.2392 23.9531 11.5173 23.0945 11.2931C22.7554 11.2056 22.0773 11.1946 21.7437 11.2712ZM22.9469 12.7149C23.2148 12.8243 23.5211 13.1306 23.6578 13.4259C23.9859 14.1259 23.6414 14.9954 22.9195 15.2962C22.6679 15.4056 22.1211 15.4056 21.875 15.3017C21.4156 15.1103 21.0656 14.6399 21.0164 14.1532C20.907 13.0923 21.957 12.3102 22.9469 12.7149Z" fill="white"/>
<path d="M13.3054 18.293C12.5179 18.5063 11.8453 19.0532 11.5117 19.7477C11.4078 19.9719 11.3203 20.1797 11.3203 20.218C11.3203 20.2727 10.2211 20.2891 5.89529 20.3L0.464819 20.3164L0.289819 20.4422C-0.0765869 20.7047 -0.0765869 21.2953 0.289819 21.5578L0.464819 21.6836L5.89529 21.7C10.2211 21.711 11.3203 21.7274 11.3203 21.7821C11.3203 21.8203 11.4078 22.0282 11.5117 22.2524C12.3211 23.9422 14.6562 24.3141 15.9851 22.9524C16.2804 22.6571 16.6797 21.9789 16.6797 21.7821C16.6797 21.7274 17.7789 21.711 22.1101 21.7L27.5351 21.6836L27.7101 21.5578C28.0765 21.2953 28.0765 20.7047 27.7101 20.4422L27.5351 20.3164L22.1101 20.3C17.7789 20.2891 16.6797 20.2727 16.6797 20.218C16.6797 20.1797 16.5922 19.9664 16.4883 19.7477C15.9359 18.5993 14.5414 17.9649 13.3054 18.293ZM14.6562 19.786C15.6351 20.2727 15.6297 21.7219 14.6398 22.225C13.8031 22.6516 12.8351 22.1922 12.6383 21.2735C12.4851 20.5571 12.9281 19.8516 13.6609 19.6547C13.989 19.5618 14.2789 19.6 14.6562 19.786Z" fill="white"/>
</svg>
