<svg width="13" height="15" viewBox="0 0 13 15" fill="none" xmlns="http://www.w3.org/2000/svg">
<path d="M6.50004 14.625C5.50011 13.7721 4.57327 12.837 3.72921 11.8296C2.46254 10.3168 0.958375 8.06368 0.958375 5.91668C0.957252 3.67432 2.30757 1.65228 4.37922 0.794116C6.45087 -0.0640456 8.83551 0.410825 10.4204 1.99713C11.4626 3.0347 12.0464 4.44607 12.0417 5.91668C12.0417 8.06368 10.5375 10.3168 9.27087 11.8296C8.42681 12.837 7.49997 13.7721 6.50004 14.625ZM6.50004 1.95834C4.315 1.96096 2.54433 3.73163 2.54171 5.91668C2.54171 6.83976 2.95892 8.43813 4.94442 10.8139C5.43378 11.3982 5.95301 11.9568 6.50004 12.4875C7.04712 11.9575 7.56661 11.3997 8.05646 10.8163C10.0412 8.43734 10.4584 6.83897 10.4584 5.91668C10.4558 3.73163 8.68508 1.96096 6.50004 1.95834ZM6.50004 8.29168C5.18837 8.29168 4.12504 7.22835 4.12504 5.91668C4.12504 4.605 5.18837 3.54168 6.50004 3.54168C7.81172 3.54168 8.87504 4.605 8.87504 5.91668C8.87504 6.54657 8.62482 7.15066 8.17942 7.59606C7.73402 8.04145 7.12993 8.29168 6.50004 8.29168Z" fill="#2E3A59"/>
</svg>
